<svg xmlns="http://www.w3.org/2000/svg" xmlns:xlink="http://www.w3.org/1999/xlink" width="259" height="218" viewBox="0 0 259 218">
  <defs>
    <clipPath id="clip-path">
      <rect id="Rectangle_2308" data-name="Rectangle 2308" width="395.854" height="369.836" fill="none"/>
    </clipPath>
    <clipPath id="clip-path-2">
      <path id="Path_12282" data-name="Path 12282" d="M275.534,82.557c-38.669,0-64.447,38.873-74.214,77.742-9.873,39.292-3.388,78.585,22.67,77.728,43.305-1.424,46.366-2.642,112.489,12.783,69.311,16.168,78.973-82.968,35.087-108.357s-57.8-53.92-85.051-58.883a61.148,61.148,0,0,0-10.975-1.014h-.006" transform="translate(-196.936 -82.557)" fill="none"/>
    </clipPath>
    <linearGradient id="linear-gradient" x1="-0.347" y1="1.799" x2="-0.345" y2="1.799" gradientUnits="objectBoundingBox">
      <stop offset="0" stop-color="#fff"/>
      <stop offset="0.381" stop-color="#fff"/>
      <stop offset="0.547" stop-color="#e8f5f6"/>
      <stop offset="0.89" stop-color="#afdddf"/>
      <stop offset="1" stop-color="#9cd5d8"/>
    </linearGradient>
    <clipPath id="clip-path-3">
      <path id="Path_12286" data-name="Path 12286" d="M201.32,160.3c-9.873,39.292-3.388,78.585,22.67,77.728,43.305-1.424,46.366-2.642,112.489,12.783,69.311,16.168,78.973-82.968,35.087-108.357s-57.8-53.92-85.051-58.883a61.137,61.137,0,0,0-10.981-1.014c-38.669,0-64.447,38.873-74.214,77.742" transform="translate(-196.936 -82.557)" fill="none"/>
    </clipPath>
    <clipPath id="clip-path-4">
      <rect id="Rectangle_2288" data-name="Rectangle 2288" width="104.559" height="174.976" fill="none"/>
    </clipPath>
    <clipPath id="clip-path-5">
      <path id="Path_12283" data-name="Path 12283" d="M362.35,260.017h-25.77L257.792,85.041h58.18l21.116,79.665Z" transform="translate(-257.792 -85.041)" fill="none"/>
    </clipPath>
    <linearGradient id="linear-gradient-2" x1="-0.548" y1="1.764" x2="-0.545" y2="1.764" gradientUnits="objectBoundingBox">
      <stop offset="0" stop-color="#fff"/>
      <stop offset="1" stop-color="#fff"/>
    </linearGradient>
    <clipPath id="clip-path-6">
      <rect id="Rectangle_2290" data-name="Rectangle 2290" width="60.664" height="174.976" fill="none"/>
    </clipPath>
    <clipPath id="clip-path-7">
      <path id="Path_12284" data-name="Path 12284" d="M461.828,260.017H448.263l-5.2-19.315L417.8,146.853h0L401.164,85.041h35.751Z" transform="translate(-401.164 -85.041)" fill="none"/>
    </clipPath>
    <linearGradient id="linear-gradient-3" x1="-2.89" y1="1.917" x2="-2.883" y2="1.917" xlink:href="#linear-gradient-2"/>
    <clipPath id="clip-path-8">
      <rect id="Rectangle_2292" data-name="Rectangle 2292" width="204.402" height="85.608" fill="none"/>
    </clipPath>
    <clipPath id="clip-path-9">
      <path id="Path_12285" data-name="Path 12285" d="M198.222,401.712H401.307l.329-10.608h-2.043l.5-14.7H389.382l.25,7.331h-8.68l.884-34.9h-3.391l.67-5.758h-4.883l-.5-13.525h-.2l-.5,13.525H368.4l.67,5.758h-3.391l.486,19.224H355.254l1.158,23.541H351.5l.865-30.282h-6.805l-.446-6.751h-.2l-.446,6.751h-6.143l.431,15.083h-8.046l.645,18.928h-4.237l1.552-35.938h-7.132l.053-1.745h-6.157l.591-32.27H304.042l.368,20.079h-6.865l.61,27.943h-2.4l-.482-7.291h-.2l-.482,7.291h-7.925l.972,21.051h-5.109l1.341-41.2h-3.217l.991-13.324h-2.425l.573-7.755h-2.34l.549-3.158h-3.107L274.4,316.1h-.154l-.49,12.914h-3.107l.549,3.158h-2.339l.573,7.755H267.01L268,353.255h-3.217l.551,16.924h-6.318l.194-6.357-1.629-5.3.85-8.164h-3.36l-2.426-7.888-2.781,7.888h-3.516l.8,7.7-2.031,5.762.823,26.974h-4.107l.9-17.389h-2.959l.405-3.706H227.14l.406,3.706h-2.959l.409,7.881h-2.847l.861-30.132H205.558l.535,18.748h-8.86Z" transform="translate(-197.234 -316.104)" fill="none"/>
    </clipPath>
    <linearGradient id="linear-gradient-4" x1="-0.422" y1="2.828" x2="-0.42" y2="2.828" gradientUnits="objectBoundingBox">
      <stop offset="0" stop-color="#ffc0c4"/>
      <stop offset="0" stop-color="#dbb4bc"/>
      <stop offset="0" stop-color="#a8a4b2"/>
      <stop offset="0" stop-color="#7b96a9"/>
      <stop offset="0" stop-color="#558aa2"/>
      <stop offset="0" stop-color="#36809b"/>
      <stop offset="0" stop-color="#1e7897"/>
      <stop offset="0" stop-color="#0d7393"/>
      <stop offset="0" stop-color="#037091"/>
      <stop offset="0" stop-color="#006f91"/>
      <stop offset="1" stop-color="#006f91"/>
    </linearGradient>
    <clipPath id="clip-path-10">
      <path id="Path_12287" data-name="Path 12287" d="M298.9,99.978c-1.466,0-2.766,1.154-3.832,3.94-5.209,13.606,3.951,27.727,14.951,35.818,23.02,16.934,22.188-3.455,9.666-15.662-6.882-6.708-15.091-24.095-20.784-24.1h0" transform="translate(-293.569 -99.978)" fill="none"/>
    </clipPath>
    <linearGradient id="linear-gradient-5" x1="-2.805" y1="5.746" x2="-2.795" y2="5.746" xlink:href="#linear-gradient"/>
    <clipPath id="clip-path-12">
      <path id="Path_12300" data-name="Path 12300" d="M236.766,186.97c-9.105,36.238-3.124,72.477,20.908,71.686,39.939-1.313,42.762-2.437,103.744,11.789,63.923,14.912,72.834-76.518,32.359-99.933s-53.306-49.728-78.44-54.306a56.38,56.38,0,0,0-10.127-.935c-35.663,0-59.438,35.851-68.445,71.7" transform="translate(-232.723 -115.271)" fill="none"/>
    </clipPath>
    <clipPath id="clip-path-14">
      <rect id="Rectangle_2296" data-name="Rectangle 2296" width="34.961" height="1.14" fill="none"/>
    </clipPath>
    <clipPath id="clip-path-16">
      <rect id="Rectangle_2298" data-name="Rectangle 2298" width="18.91" height="0.875" fill="none"/>
    </clipPath>
    <clipPath id="clip-path-17">
      <rect id="Rectangle_2299" data-name="Rectangle 2299" width="13.704" height="1.014" fill="none"/>
    </clipPath>
    <clipPath id="clip-path-18">
      <rect id="Rectangle_2300" data-name="Rectangle 2300" width="19.043" height="0.875" fill="none"/>
    </clipPath>
    <clipPath id="clip-path-19">
      <rect id="Rectangle_2301" data-name="Rectangle 2301" width="13.386" height="1.011" fill="none"/>
    </clipPath>
    <clipPath id="clip-path-20">
      <rect id="Rectangle_2302" data-name="Rectangle 2302" width="18.91" height="0.874" fill="none"/>
    </clipPath>
    <clipPath id="clip-path-21">
      <rect id="Rectangle_2303" data-name="Rectangle 2303" width="13.386" height="1.01" fill="none"/>
    </clipPath>
    <clipPath id="clip-path-22">
      <path id="Rectangle_2306" data-name="Rectangle 2306" d="M7.9,0H73.568a7.9,7.9,0,0,1,7.9,7.9V48.622a7.9,7.9,0,0,1-7.9,7.9H7.9a7.9,7.9,0,0,1-7.9-7.9V7.9A7.9,7.9,0,0,1,7.9,0Z" fill="none"/>
    </clipPath>
    <clipPath id="clip-path-23">
      <rect id="Rectangle_2305" data-name="Rectangle 2305" width="1.875" height="4.454" fill="none"/>
    </clipPath>
    <clipPath id="clip-Artboard_22">
      <rect width="259" height="218"/>
    </clipPath>
  </defs>
  <g id="Artboard_22" data-name="Artboard – 22" clip-path="url(#clip-Artboard_22)">
    <rect width="259" height="218" fill="#fff"/>
    <g id="Group_5084" data-name="Group 5084" transform="translate(-57.16 7.713)">
      <g id="Group_4337" data-name="Group 4337" clip-path="url(#clip-path)">
        <g id="Group_4280" data-name="Group 4280" transform="translate(86.069 33.353)">
          <g id="Group_4279" data-name="Group 4279" clip-path="url(#clip-path-2)">
            <path id="Path_13442" data-name="Path 13442" d="M0,0,227.415.3l.266,187.979-227.415-.3Z" transform="translate(-8.937 0.055) rotate(-0.991)" fill="url(#linear-gradient)"/>
          </g>
        </g>
        <g id="Group_4297" data-name="Group 4297" transform="translate(86.069 33.353)">
          <g id="Group_4296" data-name="Group 4296" clip-path="url(#clip-path-3)">
            <g id="Group_4285" data-name="Group 4285" transform="translate(26.596 1.004)" opacity="0.34" style="mix-blend-mode: overlay;isolation: isolate">
              <g id="Group_4284" data-name="Group 4284">
                <g id="Group_4283" data-name="Group 4283" clip-path="url(#clip-path-4)">
                  <g id="Group_4282" data-name="Group 4282">
                    <g id="Group_4281" data-name="Group 4281" clip-path="url(#clip-path-5)">
                      <path id="Path_13441" data-name="Path 13441" d="M0,0,156.275,3.46,160.94,201.1,4.665,197.635Z" transform="translate(-55.061 16.33) rotate(-17.788)" fill="url(#linear-gradient-2)"/>
                    </g>
                  </g>
                </g>
              </g>
            </g>
            <g id="Group_4290" data-name="Group 4290" transform="translate(89.256 1.004)" opacity="0.34" style="mix-blend-mode: overlay;isolation: isolate">
              <g id="Group_4289" data-name="Group 4289">
                <g id="Group_4288" data-name="Group 4288" clip-path="url(#clip-path-6)">
                  <g id="Group_4287" data-name="Group 4287">
                    <g id="Group_4286" data-name="Group 4286" clip-path="url(#clip-path-7)">
                      <rect id="Rectangle_2289" data-name="Rectangle 2289" width="60.664" height="174.976" transform="translate(0 0)" fill="url(#linear-gradient-3)"/>
                    </g>
                  </g>
                </g>
              </g>
            </g>
            <g id="Group_4295" data-name="Group 4295" transform="translate(0.13 94.354)" opacity="0.26">
              <g id="Group_4294" data-name="Group 4294">
                <g id="Group_4293" data-name="Group 4293" clip-path="url(#clip-path-8)">
                  <g id="Group_4292" data-name="Group 4292">
                    <g id="Group_4291" data-name="Group 4291" clip-path="url(#clip-path-9)">
                      <rect id="Rectangle_2291" data-name="Rectangle 2291" width="204.402" height="85.608" transform="translate(0 0)" fill="url(#linear-gradient-4)"/>
                    </g>
                  </g>
                </g>
              </g>
            </g>
          </g>
        </g>
        <g id="Group_4299" data-name="Group 4299" transform="translate(128.301 40.392)">
          <g id="Group_4298" data-name="Group 4298" clip-path="url(#clip-path-10)">
            <path id="Path_13443" data-name="Path 13443" d="M0,0,44.232.058l.081,57.374L.081,57.374Z" transform="matrix(1, -0.017, 0.017, 1, -4.768, 0.017)" fill="url(#linear-gradient-5)"/>
          </g>
        </g>
        <g id="Group_4301" data-name="Group 4301">
          <g id="Group_4300" data-name="Group 4300" clip-path="url(#clip-path)">
            <path id="Path_12288" data-name="Path 12288" d="M461.334,329.385a11.7,11.7,0,0,1,5.6.218s-3.666-1.721-5.76-1.347Z" transform="translate(-259.62 -195.607)" fill="#fe7d69"/>
          </g>
        </g>
        <g id="Group_4303" data-name="Group 4303" transform="translate(101.709 46.57)">
          <g id="Group_4302" data-name="Group 4302" clip-path="url(#clip-path-12)">
            <path id="Path_12289" data-name="Path 12289" d="M437.075,269.511c2.176,14.708,6.338,22.279,15.345,34.7,17.654,8.2,29.906,33.909,30.58,32.809,4.647-7.594,20.488-7.483,25.389-14.934,1.142-1.733-3.673-25.959-7.01-29.044-12.991-13.537-23.733-32.063-30.542-48.428-2.957-8.12-17.627-5.754-30.063,3.176-6.794,4.888-4.274,17.867-3.7,21.716" transform="translate(-347.241 -189.398)" fill="#ffa08f"/>
            <path id="Path_12290" data-name="Path 12290" d="M69.789,9.618c-1.6.114,2.01-4.36.359-4.245C71.586,3.546,65.879,1.332,63.44.837,49.8-2.009,32.948,2.473,21.519,13.184,17.545,16.716-3.029,41.357.379,45.089c5.283,6.94,20.112-7.874,24.077-12.92,6.884-7.581,12.109-7.019,21.872-8.946,6.183-1.208,13.625-6.432,19.889-6.933,1.712-.125,3.418-.261,5.118-.378,4.18-.3,2.6-6.6-1.546-6.3" transform="matrix(0.719, 0.695, -0.695, 0.719, 75.769, 18.674)" fill="#ffa08f"/>
            <path id="Path_12291" data-name="Path 12291" d="M406.345,266.173c-31.678-10.8-45.058,1.778-62.291,24.657,10.217,1.816,17-5.708,23.865-11.714,11.388-11.484,28.151-9.249,43.422-8,.1-1.4-3.244-4.435-5-4.944" transform="translate(-295.398 -202.87)" fill="#fe7d69"/>
            <path id="Path_12292" data-name="Path 12292" d="M319.755,256.646c9.357,3.545,15.7-2.5,25.2-3.607,10.208-.544,20.53-1.145,29.61,1.155.462.114,1.771-1.23,2.246-1.092,7.869,2.214,10.426,3.794,17.934,6.889,3.181,1.306,5.109-2.231,3.816-4.466-1.266-1.909-4.291-2.28-6.343-3.366,3.189-1.675,1.4-5.255-1.283-6.576-15.7-12.329-36.7-16.011-54.445-5.141-4.2,2.075-8.285,4.353-12.173,6.5-2.975,1.632-6.805,2.927-6.846,6.557a3.178,3.178,0,0,0,2.28,3.151" transform="translate(-280.434 -186.034)" fill="#ffa08f"/>
            <path id="Path_12293" data-name="Path 12293" d="M360.992,240.171c9.841,6.748,29.371,4.254,37.887,12.9.462.114,1.232-3.263,1.707-3.126,5.875.149,20.43,15.347,22.768,7.743-6.707-17.151-29.784-27.7-48.632-23.032a82.682,82.682,0,0,0-13.731,5.511" transform="translate(-304.933 -185.765)" fill="#fe7d69"/>
            <path id="Path_12294" data-name="Path 12294" d="M362.364,219.968c-3.468-.041-7.469-.8-9.568,2.275-3.24,8.177,17.292,12.4,23.656,12.935,10.126,1.56,15.424,4.285,17.734,13.228,1.891,7.323,16.088,10.557,20.727,16.826,2.434,3.308,7.581-.7,5.165-3.978-.94-1.274-1.917-2.6-2.874-3.911a3.274,3.274,0,0,0,3.331-4.388c-9.14-27.218-29.236-34.383-58.172-32.987" transform="translate(-288.592 -178.235)" fill="#ffa08f"/>
            <path id="Path_12295" data-name="Path 12295" d="M499.816,377.718c-38.453,25.06-27.948,38.906,10.638,14.021,38.452-25.059,27.947-38.905-10.638-14.021" transform="translate(-369.514 -263.875)" fill="#117d7f"/>
            <path id="Path_12296" data-name="Path 12296" d="M502.154,370.792c-29.3,19.1-21.3,29.646,8.106,10.684,29.3-19.095,21.3-29.645-8.106-10.684" transform="translate(-374.061 -261.607)" fill="#b0b0b0"/>
            <path id="Path_12297" data-name="Path 12297" d="M513.255,346.97l-39.868,21.21c1.437.174,95.308,165.721,115.737,202.868,19.175,17.546,96.173-8.021,66.506-52.469-39.174-58.689-142.374-171.61-142.374-171.61" transform="translate(-368.207 -253.362)" fill="#ffa08f"/>
            <path id="Path_12298" data-name="Path 12298" d="M510.315,382.688c12.36-8.013,20.566-16.9,18.328-19.851l52.056,66.7-56.068,27.984-40.75-65.668c2.238,2.95,14.073-1.154,26.433-9.167" transform="translate(-374.116 -262.819)" fill="#fcf9e4"/>
            <path id="Path_12299" data-name="Path 12299" d="M475.84,405.362,573.2,568.152l80.97-44.239L534.579,367.281c7.73,8.5-52.782,47.69-58.739,38.081" transform="translate(-369.588 -265.468)" fill="#24a8b2"/>
            <path id="Path_13217" data-name="Path 13217" d="M362.364,219.968c-3.468-.041-7.469-.8-9.568,2.275-3.24,8.177,17.292,12.4,23.656,12.935,10.126,1.56,15.424,4.285,17.734,13.228,1.891,7.323,16.088,10.557,20.727,16.826,2.434,3.308,7.581-.7,5.165-3.978-.94-1.274-1.917-2.6-2.874-3.911a3.274,3.274,0,0,0,3.331-4.388c-9.14-27.218-29.236-34.383-58.172-32.987" transform="translate(-293.815 -167.516)" fill="#ffa08f"/>
          </g>
        </g>
        <g id="Group_4329" data-name="Group 4329">
          <g id="Group_4328" data-name="Group 4328" clip-path="url(#clip-path)">
            <rect id="Rectangle_2295" data-name="Rectangle 2295" width="72.407" height="119.284" transform="translate(123.314 36.792) rotate(-0.105)" fill="#dcefff"/>
            <path id="Path_12301" data-name="Path 12301" d="M276.039,79.779l41.853.229.01,5.024-21.2.036c-7.95.571-24.128-2.977-24.308,8.611l.177,97.16c.01,4.706,4.144,8.514,9.234,8.505l36.3.075.021,10.549-41.852.356c-5.09.009-9.224-3.8-9.234-8.5l-.21-113.505c-.009-4.705,4.11-8.527,9.2-8.536" transform="translate(-150.22 -47.548)" fill="#11a896"/>
            <path id="Path_12302" data-name="Path 12302" d="M275.438,88.111v113.5c0,4.516,3.791,8.207,8.593,8.505.687.251,64.284-.141,64.99.019a5.758,5.758,0,0,0,5.967-5.517V85.111a5.763,5.763,0,0,0-5.975-5.524c-.894.225-64.131-.185-64.991.02-4.8.3-8.583,4-8.583,8.5m5.548,2.372a5.759,5.759,0,0,1,5.972-5.52h56.514a5.758,5.758,0,0,1,5.968,5.52v103.16a5.758,5.758,0,0,1-5.968,5.52H286.961a5.765,5.765,0,0,1-5.975-5.523Z" transform="translate(-155.061 -47.41)" fill="#11a896"/>
            <path id="Path_12303" data-name="Path 12303" d="M345.57,387.911l15.343-.026a2.583,2.583,0,1,0-.011-5.15l-15.343.026a2.583,2.583,0,1,0,.01,5.15" transform="translate(-192.971 -228.108)" fill="#2d7577"/>
            <path id="Path_12304" data-name="Path 12304" d="M333.355,291.037h40.819a1.884,1.884,0,0,1,1.953,1.806V317c.057,2.448-3.7,1.7-5.317,1.806l2.78,6.4h-1.843l-6.6-6.4H333.355A1.883,1.883,0,0,1,331.4,317V292.843a1.883,1.883,0,0,1,1.953-1.806" transform="translate(-186.566 -173.456)" fill="#00c3c8"/>
            <g id="Group_4306" data-name="Group 4306" transform="translate(149.711 123.838)" opacity="0.42">
              <g id="Group_4305" data-name="Group 4305">
                <g id="Group_4304" data-name="Group 4304" clip-path="url(#clip-path-14)">
                  <path id="Path_12305" data-name="Path 12305" d="M377.059,307.533c-.469-.4-34.61.784-34.5-.436-.113-1.222,34.038-.039,34.5-.439a.438.438,0,1,1,0,.875" transform="translate(-342.558 -306.526)" fill="#0053b5"/>
                </g>
              </g>
            </g>
            <g id="Group_4309" data-name="Group 4309" transform="translate(149.711 137.17)" opacity="0.42">
              <g id="Group_4308" data-name="Group 4308">
                <g id="Group_4307" data-name="Group 4307" clip-path="url(#clip-path-14)">
                  <path id="Path_12306" data-name="Path 12306" d="M377.059,340.532c-.469-.4-34.61.784-34.5-.436-.113-1.221,34.038-.04,34.5-.439a.438.438,0,1,1,0,.876" transform="translate(-342.558 -339.525)" fill="#0053b5"/>
                </g>
              </g>
            </g>
            <g id="Group_4312" data-name="Group 4312" transform="translate(165.762 128.73)" opacity="0.42">
              <g id="Group_4311" data-name="Group 4311">
                <g id="Group_4310" data-name="Group 4310" clip-path="url(#clip-path-16)">
                  <path id="Path_12307" data-name="Path 12307" d="M397.735,319.51H379.758a.439.439,0,1,1,0-.875h17.978a.438.438,0,1,1,0,.875" transform="translate(-379.285 -318.635)" fill="#0053b5"/>
                </g>
              </g>
            </g>
            <g id="Group_4315" data-name="Group 4315" transform="translate(149.692 128.661)" opacity="0.42">
              <g id="Group_4314" data-name="Group 4314">
                <g id="Group_4313" data-name="Group 4313" clip-path="url(#clip-path-17)">
                  <path id="Path_12308" data-name="Path 12308" d="M355.757,319.408c-.219-.227-13.762.53-13.225-.437-.591-.964,13.067-.215,13.225-.438a.438.438,0,1,1,0,.875" transform="translate(-342.513 -318.464)" fill="#0053b5"/>
                </g>
              </g>
            </g>
            <g id="Group_4318" data-name="Group 4318" transform="translate(149.71 132.713)" opacity="0.42">
              <g id="Group_4317" data-name="Group 4317">
                <g id="Group_4316" data-name="Group 4316" clip-path="url(#clip-path-18)">
                  <path id="Path_12309" data-name="Path 12309" d="M361.14,329.367h-18.11a.439.439,0,1,1,0-.875h18.11a.438.438,0,1,1,0,.875" transform="translate(-342.556 -328.492)" fill="#0053b5"/>
                </g>
              </g>
            </g>
            <g id="Group_4321" data-name="Group 4321" transform="translate(171.287 132.642)" opacity="0.42">
              <g id="Group_4320" data-name="Group 4320">
                <g id="Group_4319" data-name="Group 4319" clip-path="url(#clip-path-19)">
                  <path id="Path_12310" data-name="Path 12310" d="M404.852,329.263c-.275-.217-13.34.514-12.911-.437-.529-.969,12.72-.211,12.911-.438a.438.438,0,1,1,0,.875" transform="translate(-391.926 -328.318)" fill="#fff"/>
                </g>
              </g>
            </g>
            <path id="Path_12311" data-name="Path 12311" d="M382.851,290.665c-1.906.24-3.409,2.238-2.53,3.962,3.986,7.813,8.692,20.594,12.77,23.916,3.514,2.862,19.795,8.156,28.709,10.183a2.644,2.644,0,0,0,3.381-2.818c.938-.584,1.148-15.042.681-16.1-2.322-5.245-18.968-.624-24.029-4.069-5.739-3.906-6.136-16.646-18.983-15.079" transform="translate(-213.961 -173.156)" fill="#ffa08f"/>
            <path id="Path_12312" data-name="Path 12312" d="M458.017,330.493s8.351.872,11.872,5.615c0,0,.368-4.285-6.177-6.349-.731.456-4.8.641-5.694.734" transform="translate(-257.846 -196.535)" fill="#fe7d69"/>
            <path id="Path_12313" data-name="Path 12313" d="M422.156,323.384a6.026,6.026,0,0,1-2.336,4.512,7.368,7.368,0,0,0,4.394-2.572s-1.919-1.767-2.059-1.939" transform="translate(-236.342 -192.735)" fill="#fe7d69"/>
            <g id="Group_4324" data-name="Group 4324" transform="translate(161.315 53.634)" opacity="0.21">
              <g id="Group_4323" data-name="Group 4323">
                <g id="Group_4322" data-name="Group 4322" clip-path="url(#clip-path-20)">
                  <path id="Path_12314" data-name="Path 12314" d="M387.56,133.63H369.582a.438.438,0,1,1,0-.874H387.56a.438.438,0,1,1,0,.874" transform="translate(-369.109 -132.756)" fill="#fff"/>
                </g>
              </g>
            </g>
            <g id="Group_4327" data-name="Group 4327" transform="translate(166.84 57.547)" opacity="0.21">
              <g id="Group_4326" data-name="Group 4326">
                <g id="Group_4325" data-name="Group 4325" clip-path="url(#clip-path-21)">
                  <path id="Path_12315" data-name="Path 12315" d="M394.676,143.384c-.275-.217-13.341.513-12.91-.437-.53-.968,12.72-.211,12.91-.438a.438.438,0,1,1,0,.874" transform="translate(-381.751 -142.44)" fill="#fff"/>
                </g>
              </g>
            </g>
            <path id="Path_12316" data-name="Path 12316" d="M300.8,203.278H353.56c1.394,0,2.525.808,2.525,1.805V225.02c0,1-1.131,1.805-2.525,1.805H312.466l-7.891,4.779.572-4.779c-2.1-.122-6.943.658-6.874-1.805V205.083c0-1,1.13-1.805,2.524-1.805" transform="translate(-167.916 -121.153)" fill="#ffca5f"/>
            <path id="Path_12317" data-name="Path 12317" d="M433.211,0h-80.94A3.734,3.734,0,0,0,348.4,3.58V58.923c-.034,4.879,7.278,3.368,10.544,3.58l-.315,13.114h3.47l1.144-3.344,13.477-9.77h56.492a3.735,3.735,0,0,0,3.873-3.58V3.58A3.735,3.735,0,0,0,433.211,0" transform="translate(-196.135)" fill="#6d2634"/>
            <path id="Path_12318" data-name="Path 12318" d="M441.151,0h-80.94a3.735,3.735,0,0,0-3.873,3.58V58.923c-.035,4.879,7.278,3.368,10.544,3.58l-.315,13.114L384.659,62.5h56.492a3.735,3.735,0,0,0,3.872-3.58V3.58A3.735,3.735,0,0,0,441.151,0" transform="translate(-200.605)" fill="#ca2e55"/>
            <path id="Path_12319" data-name="Path 12319" d="M441.072,64.371H366.51a3.329,3.329,0,0,1-3.453-3.191V11.04a3.329,3.329,0,0,1,3.453-3.191h74.562a3.329,3.329,0,0,1,3.452,3.191V61.18a3.329,3.329,0,0,1-3.452,3.191" transform="translate(-204.387 -4.678)" fill="#ffdce3"/>
          </g>
        </g>
        <g id="Group_4334" data-name="Group 4334" transform="translate(158.67 3.171)">
          <g id="Group_4333" data-name="Group 4333" clip-path="url(#clip-path-22)">
            <path id="Path_12320" data-name="Path 12320" d="M484.466,121.322c-.087,2.125-3.185,8.157-3.74,8.308-5.908,2.272-30.7-18.007-26.317-26.063,8.346,2.151,17.746,7.832,23,11.763,3.332,2.491,7.126,4.54,7.054,5.992" transform="translate(-414.193 -64.896)" fill="#ffb13f"/>
            <path id="Path_12321" data-name="Path 12321" d="M496.48,75.517c-.187,1.7.987,2.595,1.1,4.207a16.554,16.554,0,0,0,.186,3.311c.057.275,5.193-.6,5.191-.823-.012-1.617-.277-4.872-.348-5.869.055-.366.587-1.64.122-2.323-2.183-2.587-5.389-1.609-6.249,1.5" transform="translate(-438.158 -46.401)" fill="#ffa08f"/>
            <path id="Path_12322" data-name="Path 12322" d="M497.932,61.554c-3.441-1.087,1.162,3.947.094,5.434a22.43,22.43,0,0,1-.7,2.556c.051.882.836.181.846-.4a.358.358,0,0,0,.6-.053c1.9-2.431,1.033-5.382-.836-7.54" transform="translate(-438.255 -39.766)" fill="#ffa08f"/>
            <path id="Path_12323" data-name="Path 12323" d="M504.281,60.419c-3.33-1.193.794,3.969-.149,5.31a22.383,22.383,0,0,1-.705,2.556c.049.884.843.171.847-.4a.358.358,0,0,0,.6-.053c1.807-2.341,1.112-5.252-.592-7.416" transform="translate(-441.816 -39.075)" fill="#ffa08f"/>
            <path id="Path_12324" data-name="Path 12324" d="M507.388,63.037a.861.861,0,0,0-1.28-.679c-.584,1.917,1.309,3.718.195,5.651a22.531,22.531,0,0,1-1.218,2.368c-.228.4.4.674.63.272.088-.156.18-.318.272-.478,1.2,2.9,2.871-3.25,2.423-4.3a12.91,12.91,0,0,0-1.022-2.831" transform="translate(-442.986 -40.256)" fill="#ffa08f"/>
            <path id="Path_12325" data-name="Path 12325" d="M501.468,59.719c-3.179-.795.84,3.906-.119,5.313a22.185,22.185,0,0,1-.705,2.556c.049.884.844.171.847-.4a.358.358,0,0,0,.6-.054c1.816-2.348,1.11-5.261-.622-7.418" transform="translate(-440.275 -38.71)" fill="#ffa08f"/>
            <path id="Path_12326" data-name="Path 12326" d="M494.133,69.729c-3.835-1.026-.406,6.468,1.082,7.39.2.188.135-1.011.247-1.19,1.289-.865-.424-2.178-.776-3.164-.433-1.1.077-2.179-.552-3.037" transform="translate(-435.86 -44.672)" fill="#ffa08f"/>
            <path id="Path_12327" data-name="Path 12327" d="M501.624,72.841a3.733,3.733,0,0,1,3.961,1.124,14.779,14.779,0,0,0-3.961-1.124" transform="translate(-441.065 -46.482)" fill="#fe7d69"/>
            <path id="Path_12328" data-name="Path 12328" d="M499.7,77.058a2.272,2.272,0,0,1,2,1.661c-.153-.585-.735-2.464-2-1.661" transform="translate(-439.982 -48.98)" fill="#fe7d69"/>
            <path id="Path_12329" data-name="Path 12329" d="M503.946,88.842c.292,1,5.33,21.506,5.608,27.244.487,5.5-6.546,5.882-9.978,3.582-2.246-2.078-.395-6.131-.92-9.347-.118-6.131-.981-21.5-.979-21.154Z" transform="translate(-438.843 -56.12)" fill="#ffb13f"/>
            <path id="Path_12330" data-name="Path 12330" d="M482.948,117.954c5.959,24.863-16.917,6.37-24.6-1.694-3.3-3.1-5.868-10.05-6.12-12.161a6.8,6.8,0,0,1,1.316-.606c8.212,3.352,11.589,15.515,19.938,19.993,7.827,4.485,8.668-1.669,9.471-5.532" transform="translate(-413.254 -64.852)" fill="#de9a37"/>
            <path id="Path_12331" data-name="Path 12331" d="M449.219,85.752c-1.16,1.991-1.527,7.742-1.156,9.025-6.509,2.969-13.563-1.118-13.563-1.118a34.83,34.83,0,0,0,1.36-7.907Z" transform="translate(-403.277 -54.279)" fill="#ffa08f"/>
            <path id="Path_12332" data-name="Path 12332" d="M450.185,85.752a15.392,15.392,0,0,0-1.242,5.353c-4.362,1.763-9.493,2.2-12.727-.346a46.519,46.519,0,0,0,.61-5.007Z" transform="translate(-404.242 -54.279)" fill="#fe7d69"/>
            <path id="Path_12333" data-name="Path 12333" d="M418.4,101.415s-7.83,1.561-11.042,3.87c0,0,.044,37.857-.758,48.081,0,0,26.181-2.164,31.176-7.442-.788-3.134,2.8-38.829-4.817-42.365,0,0-6,3.628-14.559-2.144" transform="translate(-387.571 -63.614)" fill="#ffb13f"/>
            <path id="Path_12334" data-name="Path 12334" d="M405.251,136.927s-1.047,21.836.382,27.574c0,0,10.466-1.316,21.168-3.24,0,0,5.928-3.759,2.329-12.159-22.894-5.313-9.043-21.638-23.425-29.005,0,0,1.151,13.366-.455,16.83" transform="translate(-386.602 -74.748)" fill="#de9a37"/>
            <path id="Path_12335" data-name="Path 12335" d="M454.292,111.527c3.529-.992,3.614-1.107,3.476,2.524,3.463,3.975,4.378,16.254,4.18,17.493a7.984,7.984,0,0,1-1.741,2.936s-2.08-1.376-2.038-2.722c.156-4.876-2.479-17.162-2.479-17.162-.743,0-1.732-2.214-1.4-3.068" transform="translate(-414.381 -69.285)" fill="#de9a37"/>
            <path id="Path_12336" data-name="Path 12336" d="M457.132,109.986c3.528-.991,3.615-1.108,3.476,2.523a7.57,7.57,0,0,1-2.078.544c-.743,0-1.733-2.214-1.4-3.067" transform="translate(-415.98 -68.367)" fill="#324d68"/>
            <path id="Path_12337" data-name="Path 12337" d="M460.418,117.655s2.635,12.286,2.479,17.163c-.043,1.347,2.037,2.723,2.037,2.723a7.972,7.972,0,0,0,1.74-2.936c.2-1.239-.716-13.518-4.179-17.493Z" transform="translate(-417.867 -72.969)" fill="#324d68"/>
            <path id="Path_12338" data-name="Path 12338" d="M432.962,100.312a24.625,24.625,0,0,0,12.082,3.308,18.685,18.685,0,0,0-1.555,3.937s-8.968-2.337-10.527-7.245" transform="translate(-402.411 -62.956)" fill="#fcf9e4"/>
            <path id="Path_12339" data-name="Path 12339" d="M463.189,105.366s-.531.831-2.581,1.207l3.3,2.755s.047-3.322,0-3.8-.718-.164-.718-.164" transform="translate(-417.974 -65.909)" fill="#fcf9e4"/>
            <path id="Path_12340" data-name="Path 12340" d="M391.518,110.994c-9.183,3.358-13.709,22.572-12.981,36.257.229,4.3,5.476,5.011,10.5,2.968,3.547-1.443,2.178-4.1,2.65-4.9,2.579-11.7,6.652-21.377-.166-34.326" transform="translate(-371.729 -69.323)" fill="#ffb13f"/>
            <path id="Path_12341" data-name="Path 12341" d="M463.155,197.9c-9.909.211-7.341,5.594-1.605,3.231,2.445-1.375,3.537,1.449,5.736,1.093,1.594-1.936-2.612-4.432-4.13-4.324" transform="translate(-415.65 -121.116)" fill="#ffa08f"/>
            <path id="Path_12342" data-name="Path 12342" d="M465.868,195.5a23.133,23.133,0,0,0-5.252.31c-.654.118-1.946-.721-2.127-.264-1.71,3.3,3.582,3.14,5.734,2.367,2.44-.882,3.5,1.434,5.678,1.331,1.595-1.469-2.563-3.693-4.033-3.743" transform="translate(-416.593 -119.634)" fill="#ffa08f"/>
            <path id="Path_12343" data-name="Path 12343" d="M469.072,194.229c-1.935.082-5.191-.388-6.522,1.029-.99,1.607,3.818,2.044,4.877,1.384,1.914-.528,2.717.274,4.215,1.026,3.986,1.55.837-3.3-2.57-3.438" transform="translate(-418.992 -118.923)" fill="#ffa08f"/>
            <path id="Path_12344" data-name="Path 12344" d="M468.83,193.862h0c-2.065-4.874-11.447-2.847-13.334-2.468l2.447,1.437c.084,1.616,3.275,1.277,4.948.815,1.895-1.246,6.54,3.447,5.938.216" transform="translate(-415.097 -116.8)" fill="#ffa08f"/>
            <path id="Path_12345" data-name="Path 12345" d="M378.406,188.9c-.221.972.1,5.55,4.231,6.116,10.234,1.4,31.006-2.122,31.006-2.122l.553-5.672s-27.116-3.588-30.53-3.12a5.625,5.625,0,0,0-5.261,4.8" transform="translate(-371.669 -112.872)" fill="#0053b5"/>
            <path id="Path_12346" data-name="Path 12346" d="M460.788,60.882c.009,5.447,7.291,4.608,7.114-.88-.653-5.918-7.9-5.656-7.114.88" transform="translate(-418.042 -36.405)" fill="#00aeb3"/>
            <path id="Path_12347" data-name="Path 12347" d="M460.847,60.98c.133,1.114.5,2.97,1.8,3.433-1.292-2.829-1.415-5.96.639-8.487-2.261.294-2.521,3.7-2.435,5.055" transform="translate(-418.101 -36.502)" fill="#3b343f"/>
            <path id="Path_12348" data-name="Path 12348" d="M425.157,33.312l1.515-.145c-2.878-24.342,18.409-22.1,17.513-6.791l1.516.126c1-17.489-23.786-19.464-20.544,6.809" transform="translate(-397.852 -11.185)" fill="#00aeb3"/>
            <path id="Path_12349" data-name="Path 12349" d="M431.714,51.543s1.038,6.391,3.494,7.651,11.074,1.368,12.9-.657,1.485-18.732.8-20.034-12.6-6.136-16.648-.811-.547,13.851-.547,13.851" transform="translate(-400.918 -24.177)" fill="#ffa08f"/>
            <path id="Path_12350" data-name="Path 12350" d="M428.14,65.368c-7.647-4.6-5.287,6.328-.173,3.992,1.171-.588.885-3.316.173-3.992" transform="translate(-396.934 -41.45)" fill="#ffa08f"/>
            <path id="Path_12351" data-name="Path 12351" d="M429.37,68.86c-4.18-2.7-3.259.982-.56,1.848-.781-.671-1.724-2.485.56-1.848" transform="translate(-398.778 -43.631)" fill="#fe7d69"/>
            <path id="Path_12352" data-name="Path 12352" d="M437.5,25.323c-3.126.8-11.264-.734-14.651.468a10.273,10.273,0,0,0-4.432,2.788,5.655,5.655,0,0,0-1.152,3.023c-.026,1.167-.212,1.182-1,1.965a5.72,5.72,0,0,0-1.131,4.256,16.314,16.314,0,0,0,2,5.743c1.262,2.416,5,7.35,5.937,6.947a3.855,3.855,0,0,0,1.18-2.8c-.244-1.619-.434-3.309-.84-4.9-.086-.338-.146-.577-.174-.772a.525.525,0,0,1,.991-.265l.01.02a.54.54,0,0,0,.724.221l.919-.466a.473.473,0,0,0,.265-.491,17.433,17.433,0,0,1-.029-5.371,5.964,5.964,0,0,1,2.6-3.594c2.818-1.3,7.3-.571,10.258.8a2.427,2.427,0,0,1,1.3,2.287c.044.507,0,1.813.52,1.664s.816-2.137.989-3.3c.227-1.522-.083-2.833.194-4.2.633-3.129-1.626-4.755-4.48-4.02" transform="translate(-392.361 -18.159)" fill="#1e2859"/>
            <path id="Path_12353" data-name="Path 12353" d="M431.092,62.565c.557,1.535.152,3.045-.9,3.373s-2.365-.651-2.922-2.186-.153-3.045.9-3.373,2.365.651,2.922,2.186" transform="translate(-399.063 -39.119)" fill="#ffa08f"/>
            <path id="Path_12354" data-name="Path 12354" d="M425.225,33.356l1.515-.145c-.545-2.414-.936-21.912,11.7-17.71l.435-1.349c-14.216-4.411-14.406,15.58-13.651,19.2" transform="translate(-397.92 -11.229)" fill="#00aeb3"/>
            <path id="Path_12355" data-name="Path 12355" d="M435.307,81.713a24.8,24.8,0,0,0,3.831-.345l-.193-.922c-4.981.775-7.374.962-8.869-5.427l-.989.21c.368,1.714,2.014,7.291,6.22,6.484" transform="translate(-400.229 -47.881)" fill="#00aeb3"/>
            <path id="Path_12356" data-name="Path 12356" d="M427.663,64.472c-.008,5.447-7.291,4.608-7.113-.88.652-5.919,7.9-5.656,7.113.88" transform="translate(-395.421 -38.544)" fill="#00c3c8"/>
            <path id="Path_12357" data-name="Path 12357" d="M433.694,64.569c-.133,1.114-.5,2.97-1.8,3.433,1.292-2.829,1.415-5.96-.639-8.488,2.26.295,2.522,3.7,2.435,5.055" transform="translate(-401.452 -38.641)" fill="#00aeb3"/>
            <g id="Group_4332" data-name="Group 4332" transform="translate(25.853 23.154)" opacity="0.21">
              <g id="Group_4331" data-name="Group 4331">
                <g id="Group_4330" data-name="Group 4330" clip-path="url(#clip-path-23)">
                  <path id="Path_12358" data-name="Path 12358" d="M424.006,68.66a3.529,3.529,0,0,1-.294-2.72c.224-.783-1.087-1.117-1.312-.334a4.8,4.8,0,0,0,.431,3.689c.394.723,1.568.087,1.175-.635" transform="translate(-422.211 -65.159)" fill="#fff"/>
                </g>
              </g>
            </g>
            <path id="Path_12359" data-name="Path 12359" d="M450.094,86.3c.035,2.205-3.712,2.205-3.677,0-.035-2.205,3.713-2.205,3.677,0" transform="translate(-409.985 -53.619)" fill="#00aeb3"/>
          </g>
        </g>
        <g id="Group_4336" data-name="Group 4336">
          <g id="Group_4335" data-name="Group 4335" clip-path="url(#clip-path)">
            <path id="Path_12360" data-name="Path 12360" d="M321.49,225.729h-4.344a6.913,6.913,0,0,1-.43.917H320.8V228.9q0,.705-1.091.705-.225,0-.569-.03l-.154-.493q.307.029.61.029a1.472,1.472,0,0,0,.569-.061.23.23,0,0,0,.1-.21v-1.721h-1.874v2.367h-.512v-2.367h-1.86v2.357H315.5v-2.357h-1.9v2.55h-.512v-3.023h3.063a8.37,8.37,0,0,0,.42-.917h-4.2v-.464h9.118Zm-.22-1.322h-.522V222.75H317.2V225h-.522V222.75H313.14v1.667h-.527v-2.131h4.062v-.76h-3.724v-.454h7.939v.454H317.2v.76h4.072Zm-4.994.02a11.886,11.886,0,0,1-2.464.415l-.251-.459a11.085,11.085,0,0,0,2.505-.36Zm-.031-1.031-.21.444a12.72,12.72,0,0,0-2.341-.336l.189-.434a15.151,15.151,0,0,1,2.362.326m4.082.108a12.119,12.119,0,0,1-2.453.316l-.21-.464a11.635,11.635,0,0,0,2.433-.276Zm.082.942-.23.434a15.9,15.9,0,0,0-2.474-.414l.261-.434q1.48.2,2.443.414" transform="translate(-175.853 -131.758)"/>
            <path id="Path_12361" data-name="Path 12361" d="M345.479,226.484h-2.433A6.714,6.714,0,0,1,341.837,228a28.139,28.139,0,0,1,3.473,1.2l-.312.459a22.254,22.254,0,0,0-3.652-1.263,10.492,10.492,0,0,1-4.636,1.238l-.292-.533a11.1,11.1,0,0,0,4.2-.917q-1.475-.35-2.843-.6.635-.538,1.225-1.1h-2.643V226h3.13a8.83,8.83,0,0,0,.815-.9l.569.163q-.169.227-.62.735h2.433a5.147,5.147,0,0,0,.277-.543l.553.049a3.33,3.33,0,0,1-.21.493h2.182Zm-.092-4.922h-2.981v1h2.4v2.362h-7.74v-2.362h2.4v-1H336.5v-.513h8.887Zm-5.916,1.494h-1.849v1.366h1.849Zm2.925,3.428h-2.623q-.415.424-.85.8,1.111.232,2.31.538a5.631,5.631,0,0,0,1.163-1.341m-.548-4.922h-1.834v1h1.834Zm0,1.494h-1.834v1.366h1.834Zm2.418,0h-1.859v1.366h1.859Z" transform="translate(-189.353 -131.744)"/>
            <path id="Path_12362" data-name="Path 12362" d="M362.929,223.388h-1.081V229.2h-.538v-5.814H360.1v-.518h1.214v-2.456h.538v2.456h1.081Zm2.776,1.687a15.367,15.367,0,0,1-.315,3.605.828.828,0,0,1-.817.513l-.681.01-.133-.532q.486.02.8.02.292,0,.4-.358a21.284,21.284,0,0,0,.2-2.774h-1.04a5.408,5.408,0,0,1-1.634,3.694l-.441-.311a4.8,4.8,0,0,0,1.542-3.383h-1.06v-.483h1.091q.041-.7.041-.819h.512a5.49,5.49,0,0,1-.041.819Zm3.253-3.758a7.546,7.546,0,0,1-.251,1.941,1.063,1.063,0,0,1-.474.629,2.266,2.266,0,0,1-.92.138c-.276,0-.574-.006-.891-.02l-.21-.537q.681.03,1.045.029a1.637,1.637,0,0,0,.747-.109.652.652,0,0,0,.251-.424,7.8,7.8,0,0,0,.128-1.164h-2.152a3.648,3.648,0,0,1-2.72,2.244l-.343-.434a3.205,3.205,0,0,0,2.474-1.81h-2.526v-.484h2.654q.026-.138.1-.9h.528a8.357,8.357,0,0,1-.087.9Zm.23,3.778q0,.434-.1,1.921a6.53,6.53,0,0,1-.225,1.677,1.344,1.344,0,0,1-.328.348,1.7,1.7,0,0,1-.909.158,2.119,2.119,0,0,1-.267-.015l-.2-.533q.446.04.768.04.5,0,.564-.56t.159-2.552h-1.02a6.944,6.944,0,0,1-.423,1.852,8.234,8.234,0,0,1-1.109,1.847l-.451-.345a5.621,5.621,0,0,0,1.45-3.354h-.978V225.1h1.009q.015-.158.041-.838h.512l-.031.838Z" transform="translate(-202.72 -131.366)"/>
            <path id="Path_12363" data-name="Path 12363" d="M388.6,227.7q-2.172.656-4.513,1.183l-.19-.508a5.452,5.452,0,0,0,.769-.182V220.7h3.422v6.594c.164-.036.334-.082.512-.138Zm-1.071-6.475h-2.31v1.687h2.31Zm0,2.185h-2.31v1.835h2.31Zm0,4.049v-1.7h-2.31v2.313q1.44-.36,2.31-.616m5.317-5.09q0,2.254-.09,4.123a11.753,11.753,0,0,1-.2,2.16.85.85,0,0,1-.356.434,1.884,1.884,0,0,1-.881.143q-.328,0-.681-.025l-.19-.513,1.2.01a.454.454,0,0,0,.307-.136.532.532,0,0,0,.169-.358l.1-1.835q.082-1.613.082-3.491h-1.511a10.931,10.931,0,0,1-.581,3.509,10.015,10.015,0,0,1-1.683,2.863l-.451-.33a10.576,10.576,0,0,0,1.67-2.883,9.386,9.386,0,0,0,.486-3.159h-1.582v-.513h1.593q.062-1.149.036-1.953h.553q.015.858-.02,1.953Z" transform="translate(-216.121 -131.366)"/>
            <path id="Path_12364" data-name="Path 12364" d="M409.551,227.422a2.447,2.447,0,0,1-.128-.809,1.369,1.369,0,0,1,.2-.718,4.834,4.834,0,0,1,.763-.875,4.9,4.9,0,0,0,.753-.831,1.2,1.2,0,0,0,.2-.653.936.936,0,0,0-.371-.784,1.488,1.488,0,0,0-.935-.286,2.153,2.153,0,0,0-1.614.71v-.893a3.355,3.355,0,0,1,1.742-.513,2.252,2.252,0,0,1,1.455.448,1.481,1.481,0,0,1,.559,1.218,1.682,1.682,0,0,1-.223.855,4.367,4.367,0,0,1-.8.925,5.187,5.187,0,0,0-.753.809,1.06,1.06,0,0,0-.184.592,2.046,2.046,0,0,0,.189.8Zm-.113,1.647a.552.552,0,0,1,.177-.4.568.568,0,0,1,.413-.175.583.583,0,0,1,.41.168.54.54,0,0,1,.179.409.55.55,0,0,1-.166.387.53.53,0,0,1-.4.175.6.6,0,0,1-.445-.173.542.542,0,0,1-.169-.389" transform="translate(-229.924 -132.174)"/>
          </g>
        </g>
      </g>
    </g>
  </g>
</svg>
