<?xml version="1.0" encoding="UTF-8"?>
<svg id="_圖層_1" data-name="圖層 1" xmlns="http://www.w3.org/2000/svg" xmlns:xlink="http://www.w3.org/1999/xlink" viewBox="0 0 36 36">
  <defs>
    <clipPath id="clippath">
      <rect x="4.31" y="5.64" width="26.72" height="26.23" fill="none"/>
    </clipPath>
    <clipPath id="clippath-1">
      <rect x="4.31" y="19.1" width="12.28" height="12.76" fill="none"/>
    </clipPath>
  </defs>
  <g clip-path="url(#clippath)" fill="none">
    <g id="Group_3905" data-name="Group 3905">
      <g id="Group_3904" data-name="Group 3904" fill="none" opacity=".97">
        <g id="Group_3903" data-name="Group 3903">
          <g clip-path="url(#clippath-1)" fill="none">
            <g id="Group_3902" data-name="Group 3902">
              <path id="Path_12024" data-name="Path 12024" d="m4.31,29.45v-7.93c0-1.34,1.08-2.42,2.42-2.42h7.45c1.34,0,2.42,1.08,2.42,2.42h0v7.93c0,1.34-1.08,2.42-2.42,2.42h-7.45c-1.34,0-2.42-1.08-2.42-2.42h0" fill="#2a7774"/>
            </g>
          </g>
        </g>
      </g>
      <path id="Path_12025" data-name="Path 12025" d="m13.2,21.47v-13.27c0-1.41,1.15-2.56,2.56-2.56h0s12.71,0,12.71,0c1.41,0,2.56,1.15,2.56,2.56,0,0,0,0,0,0v13.27c0,1.41-1.15,2.56-2.56,2.56h-12.71c-1.41,0-2.56-1.15-2.56-2.56h0" fill="#2f928f"/>
      <path id="Path_12026" data-name="Path 12026" d="m18.02,13.1l3.12,1.68,1.36,3.13s.76,1.09.82-.69,0-3.63,0-3.63c.12-.47-.17-.95-.64-1.06-.09-.02-.18-.03-.28-.02h-3.89s-1.05-.19-.49.6" fill="#fff"/>
      <line id="Line_44" data-name="Line 44" x1="10.48" y1="25.68" x2="22.67" y2="13.49" fill="none" stroke="#fff" stroke-miterlimit="10"/>
      <path id="Path_12027" data-name="Path 12027" d="m10.45,24.48c.55,0,1,.45,1,1.01,0,.55-.45,1-1.01,1-.55,0-1-.45-1-1,0-.56.45-1.01,1.01-1.01" fill="#fff" stroke="#fff"/>
    </g>
  </g>
</svg>